<?xml version="1.0" standalone="no"?>
<!DOCTYPE svg PUBLIC "-//W3C//DTD SVG 20010904//EN"
 "http://www.w3.org/TR/2001/REC-SVG-20010904/DTD/svg10.dtd">
<svg version="1.0" xmlns="http://www.w3.org/2000/svg"
 width="600.000000pt" height="600.000000pt" viewBox="0 0 600.000000 600.000000"
 preserveAspectRatio="xMidYMid meet">

<g transform="translate(0.000000,600.000000) scale(0.100000,-0.100000)"
fill="#000000" stroke="none">
<path d="M2340 4816 c-124 -26 -254 -123 -312 -232 -32 -59 -58 -152 -58 -206
l0 -38 -52 0 c-77 0 -171 -25 -249 -66 -87 -46 -190 -152 -230 -239 -31 -65
-59 -177 -59 -235 0 -58 28 -170 58 -235 l29 -61 -66 -34 c-133 -68 -242 -207
-276 -352 -57 -242 62 -500 279 -607 l67 -33 -20 -31 c-63 -103 -84 -287 -47
-412 65 -218 254 -369 489 -390 l77 -7 0 -37 c1 -133 94 -290 220 -371 144
-92 357 -93 500 -2 118 75 202 206 220 342 5 41 10 256 10 478 l0 402 80 0 80
0 0 -412 c0 -229 5 -442 10 -478 21 -130 106 -260 217 -330 138 -88 346 -93
483 -13 136 80 240 249 240 392 0 27 0 27 96 39 322 37 541 328 479 633 -9 45
-29 108 -46 140 l-29 58 53 25 c76 37 165 112 212 182 111 162 124 384 33 558
-43 80 -146 183 -228 225 -36 19 -66 35 -68 36 -1 1 9 22 22 46 63 113 78 275
38 404 -67 220 -285 384 -509 385 l-53 0 0 38 c0 21 -7 64 -15 97 -77 292
-405 437 -677 299 -120 -61 -226 -208 -248 -344 -5 -36 -10 -247 -10 -477 l0
-413 -79 0 -80 0 -3 448 c-4 422 -5 450 -25 509 -55 163 -187 284 -350 318
-80 17 -128 18 -203 1z m247 -56 c106 -37 194 -119 247 -229 l31 -66 3 -462 3
-463 -106 0 -107 0 -199 107 -199 106 0 183 0 182 35 35 c46 46 48 95 6 138
-54 54 -140 32 -162 -40 -14 -48 9 -98 52 -114 l29 -11 2 -201 3 -200 169 -92
c149 -81 166 -93 142 -99 -14 -3 -37 -20 -51 -36 -21 -25 -25 -40 -25 -92 l0
-63 -46 -7 c-25 -3 -162 -3 -305 1 l-259 6 0 140 0 140 35 31 c45 39 53 80 25
124 -26 43 -64 57 -111 43 -45 -13 -69 -48 -69 -97 0 -29 7 -44 35 -70 l35
-33 0 -153 c0 -107 4 -158 12 -166 9 -9 96 -12 330 -12 l318 0 0 -115 0 -115
-461 0 -462 0 -31 36 c-26 30 -38 36 -70 36 -95 0 -138 -101 -71 -168 18 -18
35 -24 65 -24 40 0 53 8 98 64 11 14 62 16 457 16 244 0 450 -3 459 -6 13 -5
16 -23 16 -93 l0 -88 -219 -6 c-120 -4 -224 -9 -232 -12 -8 -3 -45 -48 -84
-100 -69 -95 -69 -95 -113 -95 -35 0 -49 -6 -73 -29 -77 -77 6 -199 106 -157
46 20 68 68 54 119 -9 34 -7 39 52 119 34 46 66 87 70 92 10 11 361 28 407 20
l32 -6 0 -79 0 -79 -145 0 -145 0 0 -314 0 -313 -30 -31 c-24 -26 -30 -41 -30
-76 0 -37 5 -48 31 -70 40 -34 88 -34 128 0 26 21 31 33 31 68 0 49 -18 79
-60 96 l-30 12 0 294 0 294 125 0 125 0 0 -25 c0 -38 27 -85 56 -95 14 -6 99
-10 190 -10 l164 0 0 -448 c0 -425 -1 -452 -20 -508 -103 -298 -473 -391 -702
-176 -84 78 -124 165 -136 292 l-7 75 -100 6 c-55 4 -120 14 -145 23 -228 85
-363 306 -329 541 9 69 59 194 85 216 8 6 14 15 14 20 0 5 -39 27 -87 50 -313
149 -390 536 -158 787 56 61 151 123 208 137 39 10 42 21 15 63 -52 80 -71
142 -76 246 -5 121 14 201 68 285 97 150 234 229 410 237 47 2 88 3 93 4 4 0
7 24 7 53 1 114 45 222 125 302 120 119 293 159 452 105z m1098 5 c126 -35
240 -149 284 -285 6 -20 14 -69 19 -110 l7 -75 56 3 c123 7 265 -47 363 -139
162 -151 203 -388 103 -586 -15 -28 -31 -54 -37 -58 -16 -10 -12 -35 8 -41
107 -35 237 -134 287 -220 109 -185 93 -415 -40 -575 -50 -59 -139 -125 -198
-146 -70 -25 -73 -33 -37 -90 98 -154 94 -375 -11 -532 -95 -142 -245 -221
-421 -221 l-78 0 0 -53 c0 -118 -44 -223 -129 -307 -212 -211 -561 -151 -694
120 l-32 65 -5 455 c-3 250 -3 461 -1 468 2 8 31 12 102 12 l99 0 0 -143 0
-144 -26 -11 c-30 -14 -57 -73 -48 -107 19 -75 110 -100 165 -46 44 45 41 93
-11 142 l-40 38 0 136 0 135 61 0 c54 0 64 3 90 29 21 22 29 39 29 65 l0 36
159 0 159 0 38 -107 c21 -60 57 -160 79 -223 l42 -115 -30 -34 c-25 -29 -28
-40 -24 -75 13 -96 139 -120 182 -35 29 56 4 116 -60 144 -28 12 -36 29 -114
249 l-84 236 -173 0 -174 0 0 75 0 75 295 0 c249 0 295 -2 295 -14 0 -26 50
-56 92 -56 54 0 98 43 98 95 0 52 -44 95 -98 95 -42 0 -92 -30 -92 -56 0 -12
-46 -14 -295 -14 l-295 0 0 120 0 120 375 0 c355 0 375 -1 384 -19 27 -50 116
-50 154 2 48 64 2 157 -79 157 -41 0 -94 -45 -94 -79 0 -21 -2 -21 -370 -21
l-371 0 3 98 3 97 185 2 c102 1 190 3 197 3 6 0 48 59 92 131 l80 131 47 2
c60 2 94 37 94 96 0 59 -35 95 -93 95 -50 0 -78 -19 -98 -66 -10 -25 -9 -36 3
-63 l16 -32 -77 -127 -76 -126 -187 -1 -188 0 0 60 c0 32 -5 70 -11 83 -16 36
-60 57 -118 57 l-52 0 3 158 3 157 162 101 c160 100 163 101 213 96 46 -4 54
-2 81 24 40 38 41 99 3 138 -38 37 -101 37 -138 -1 -24 -23 -27 -34 -24 -74
l3 -47 -170 -105 -170 -105 -3 -171 -2 -171 -101 0 -100 0 3 463 3 462 31 66
c97 203 299 294 519 234z m-200 -1290 l25 -24 0 -461 c0 -447 -1 -461 -20
-480 -19 -19 -33 -20 -485 -20 -452 0 -466 1 -485 20 -19 19 -20 33 -20 480
l0 461 25 24 24 25 456 0 456 0 24 -25z"/>
<path d="M2666 3339 l-26 -20 0 -325 c0 -308 1 -325 19 -343 11 -11 35 -23 53
-26 18 -3 165 -5 326 -3 l294 3 19 24 c18 22 19 43 19 346 l0 324 -26 20 c-26
20 -38 21 -339 21 -301 0 -313 -1 -339 -21z m314 -149 c0 -19 -7 -20 -108 -20
-60 0 -111 3 -115 6 -3 3 -3 12 0 20 4 11 30 14 114 14 102 0 109 -1 109 -20z"/>
</g>
</svg>
